<svg width="25" height="24" viewBox="0 0 25 24" fill="none" xmlns="http://www.w3.org/2000/svg">
<path d="M12.9572 0C7.13195 0 2.27733 4.1511 1.18713 9.65624H4.51819C5.54455 5.95512 8.92921 3.23438 12.9572 3.23438C15.3785 3.23438 17.5666 4.21828 19.1505 5.80664L15.3009 9.65624H24.9572V0L21.4415 3.51562C19.2702 1.34362 16.2711 0 12.9572 0ZM0.957153 14.3438V24L4.47277 20.4844C6.64407 22.6564 9.64319 24 12.9572 24C18.7824 24 23.637 19.8489 24.7272 14.3438H21.3961C20.3698 18.0449 16.9851 20.7656 12.9572 20.7656C10.5358 20.7656 8.34767 19.7817 6.76379 18.1934L10.6134 14.3438H0.957153V14.3438Z" fill="#714BEC"/>
</svg>
